<svg version="1.1" viewBox="0.0 0.0 960.0 720.0" fill="none" stroke="none" stroke-linecap="square" stroke-miterlimit="10" xmlns:xlink="http://www.w3.org/1999/xlink" xmlns="http://www.w3.org/2000/svg"><clipPath id="p.0"><path d="m0 0l960.0 0l0 720.0l-960.0 0l0 -720.0z" clip-rule="nonzero"/></clipPath><g clip-path="url(#p.0)"><path fill="#000000" fill-opacity="0.0" d="m0 0l960.0 0l0 720.0l-960.0 0z" fill-rule="evenodd"/><path fill="#000000" fill-opacity="0.0" d="m283.14172 676.85754c6.7476807 -81.07941 9.028473 -162.62177 7.4356995 -243.96588c-0.68930054 -35.203186 -4.987549 -70.584045 -1.4855652 -105.619415c1.451416 -14.520386 -2.875763 -32.818542 7.438324 -43.141724c7.0179443 -7.0241394 19.829315 -1.881897 29.750671 -1.4855652c15.862946 0.633667 31.728058 1.4855652 47.60367 1.4855652c57.03311 0 114.040344 2.9763794 171.07349 2.9763794c38.18518 0 76.419556 0.6307678 114.54596 -1.4881897c14.366943 -0.79849243 28.752563 -1.4881897 43.141724 -1.4881897c2.9746094 0 8.340088 -2.9167786 8.923889 0c2.8221436 14.100922 -0.598938 28.77362 0 43.141724c2.0651855 49.54651 1.4881592 99.17163 1.4881592 148.76117c0 63.00583 5.9501343 125.918 5.9501343 188.92386" fill-rule="evenodd"/><path stroke="#000000" stroke-width="8.0" stroke-linejoin="round" stroke-linecap="butt" d="m283.14172 676.85754c6.7476807 -81.07941 9.028473 -162.62177 7.4356995 -243.96588c-0.68930054 -35.203186 -4.987549 -70.584045 -1.4855652 -105.619415c1.451416 -14.520386 -2.875763 -32.818542 7.438324 -43.141724c7.0179443 -7.0241394 19.829315 -1.881897 29.750671 -1.4855652c15.862946 0.633667 31.728058 1.4855652 47.60367 1.4855652c57.03311 0 114.040344 2.9763794 171.07349 2.9763794c38.18518 0 76.419556 0.6307678 114.54596 -1.4881897c14.366943 -0.79849243 28.752563 -1.4881897 43.141724 -1.4881897c2.9746094 0 8.340088 -2.9167786 8.923889 0c2.8221436 14.100922 -0.598938 28.77362 0 43.141724c2.0651855 49.54651 1.4881592 99.17163 1.4881592 148.76117c0 63.00583 5.9501343 125.918 5.9501343 188.92386" fill-rule="evenodd"/><path fill="#000000" fill-opacity="0.0" d="m625.28876 98.181046c-15.264343 9.161819 -39.477173 0.6881943 -52.065613 -11.900261c-10.383423 -10.383385 -18.326843 -31.858025 -8.926514 -43.139107c15.922607 -19.108276 55.66339 -22.333364 74.380554 -5.952759c8.038086 7.0346527 14.489868 19.390316 11.900269 29.75328c-2.741333 10.970276 -12.828735 18.78357 -20.826782 26.776901" fill-rule="evenodd"/><path stroke="#000000" stroke-width="8.0" stroke-linejoin="round" stroke-linecap="butt" d="m625.28876 98.181046c-15.264343 9.161819 -39.477173 0.6881943 -52.065613 -11.900261c-10.383423 -10.383385 -18.326843 -31.858025 -8.926514 -43.139107c15.922607 -19.108276 55.66339 -22.333364 74.380554 -5.952759c8.038086 7.0346527 14.489868 19.390316 11.900269 29.75328c-2.741333 10.970276 -12.828735 18.78357 -20.826782 26.776901" fill-rule="evenodd"/><path fill="#000000" fill-opacity="0.0" d="m602.9764 107.10761c11.658447 19.435364 11.900269 44.278328 11.900269 66.94225c0 9.929245 -5.5354614 22.72963 1.4855347 29.750656" fill-rule="evenodd"/><path stroke="#000000" stroke-width="8.0" stroke-linejoin="round" stroke-linecap="butt" d="m602.9764 107.10761c11.658447 19.435364 11.900269 44.278328 11.900269 66.94225c0 9.929245 -5.5354614 22.72963 1.4855347 29.750656" fill-rule="evenodd"/><path fill="#000000" fill-opacity="0.0" d="m611.90027 209.75328c-13.707092 16.44461 -8.10321 42.169342 -14.876648 62.477676" fill-rule="evenodd"/><path stroke="#000000" stroke-width="8.0" stroke-linejoin="round" stroke-linecap="butt" d="m611.90027 209.75328c-13.707092 16.44461 -8.10321 42.169342 -14.876648 62.477676" fill-rule="evenodd"/><path fill="#000000" fill-opacity="0.0" d="m617.8504 206.7769c20.228699 15.169312 14.876648 49.09601 14.876648 74.38057" fill-rule="evenodd"/><path stroke="#000000" stroke-width="8.0" stroke-linejoin="round" stroke-linecap="butt" d="m617.8504 206.7769c20.228699 15.169312 14.876648 49.09601 14.876648 74.38057" fill-rule="evenodd"/><path fill="#000000" fill-opacity="0.0" d="m558.34644 124.95801c2.809082 9.829178 2.2027588 25.03067 11.900269 28.26509c17.900146 5.970215 37.75409 1.1014099 56.530212 2.9763794c10.85498 1.0839691 25.013184 7.7138367 32.72705 0c7.4960327 -7.496048 2.5977783 -21.184464 5.9500732 -31.24147" fill-rule="evenodd"/><path stroke="#000000" stroke-width="8.0" stroke-linejoin="round" stroke-linecap="butt" d="m558.34644 124.95801c2.809082 9.829178 2.2027588 25.03067 11.900269 28.26509c17.900146 5.970215 37.75409 1.1014099 56.530212 2.9763794c10.85498 1.0839691 25.013184 7.7138367 32.72705 0c7.4960327 -7.496048 2.5977783 -21.184464 5.9500732 -31.24147" fill-rule="evenodd"/><path fill="#000000" fill-opacity="0.0" d="m492.8924 200.82677l0 72.88188" fill-rule="evenodd"/><path stroke="#000000" stroke-width="1.0" stroke-linejoin="round" stroke-linecap="butt" d="m492.8924 200.82677l0 66.88188" fill-rule="evenodd"/><path fill="#000000" stroke="#000000" stroke-width="1.0" stroke-linecap="butt" d="m491.24066 267.70865l1.6517334 4.5381165l1.6517334 -4.5381165z" fill-rule="evenodd"/><path fill="#000000" fill-opacity="0.0" d="m508.8924 200.82677l0 72.88188" fill-rule="evenodd"/><path stroke="#000000" stroke-width="1.0" stroke-linejoin="round" stroke-linecap="butt" d="m508.8924 200.82677l0 66.88188" fill-rule="evenodd"/><path fill="#000000" stroke="#000000" stroke-width="1.0" stroke-linecap="butt" d="m507.24066 267.70865l1.6517334 4.5381165l1.6517334 -4.5381165z" fill-rule="evenodd"/><path fill="#000000" fill-opacity="0.0" d="m476.16272 200.82677l0 72.88188" fill-rule="evenodd"/><path stroke="#000000" stroke-width="1.0" stroke-linejoin="round" stroke-linecap="butt" d="m476.16272 200.82677l0 66.88188" fill-rule="evenodd"/><path fill="#000000" stroke="#000000" stroke-width="1.0" stroke-linecap="butt" d="m474.511 267.70865l1.6517334 4.5381165l1.6517334 -4.5381165z" fill-rule="evenodd"/><path fill="#000000" fill-opacity="0.0" d="m196.87927 614.39105l72.8819 0" fill-rule="evenodd"/><path stroke="#000000" stroke-width="1.0" stroke-linejoin="round" stroke-linecap="butt" d="m196.87927 614.39105l66.8819 0" fill-rule="evenodd"/><path fill="#000000" stroke="#000000" stroke-width="1.0" stroke-linecap="butt" d="m263.76117 616.0428l4.538086 -1.6517334l-4.538086 -1.6517334z" fill-rule="evenodd"/><path fill="#000000" fill-opacity="0.0" d="m196.87927 598.39105l72.8819 0" fill-rule="evenodd"/><path stroke="#000000" stroke-width="1.0" stroke-linejoin="round" stroke-linecap="butt" d="m196.87927 598.39105l66.8819 0" fill-rule="evenodd"/><path fill="#000000" stroke="#000000" stroke-width="1.0" stroke-linecap="butt" d="m263.76117 600.0428l4.538086 -1.6517334l-4.538086 -1.6517334z" fill-rule="evenodd"/><path fill="#000000" fill-opacity="0.0" d="m196.87927 631.1207l72.8819 0" fill-rule="evenodd"/><path stroke="#000000" stroke-width="1.0" stroke-linejoin="round" stroke-linecap="butt" d="m196.87927 631.1207l66.8819 0" fill-rule="evenodd"/><path fill="#000000" stroke="#000000" stroke-width="1.0" stroke-linecap="butt" d="m263.76117 632.77246l4.538086 -1.6517334l-4.538086 -1.6517334z" fill-rule="evenodd"/></g></svg>