<svg version="1.1" viewBox="0.0 0.0 960.0 720.0" fill="none" stroke="none" stroke-linecap="square" stroke-miterlimit="10" xmlns:xlink="http://www.w3.org/1999/xlink" xmlns="http://www.w3.org/2000/svg"><clipPath id="p.0"><path d="m0 0l960.0 0l0 720.0l-960.0 0l0 -720.0z" clip-rule="nonzero"/></clipPath><g clip-path="url(#p.0)"><path fill="#000000" fill-opacity="0.0" d="m0 0l960.0 0l0 720.0l-960.0 0z" fill-rule="evenodd"/><path fill="#000000" fill-opacity="0.0" d="m88.26509 165.98688l738.1102 0l0 49.102356l-738.1102 0z" fill-rule="evenodd"/><path stroke="#000000" stroke-width="1.0" stroke-linejoin="round" stroke-linecap="butt" d="m88.26509 165.98688l738.1102 0l0 49.102356l-738.1102 0z" fill-rule="evenodd"/><path fill="#000000" fill-opacity="0.0" d="m48.09974 190.28346l30.48819 0" fill-rule="evenodd"/><path stroke="#000000" stroke-width="1.0" stroke-linejoin="round" stroke-linecap="butt" d="m48.09974 190.28346l24.48819 0" fill-rule="evenodd"/><path fill="#000000" stroke="#000000" stroke-width="1.0" stroke-linecap="butt" d="m72.58793 191.9352l4.5380936 -1.6517334l-4.5380936 -1.6517334z" fill-rule="evenodd"/><path fill="#000000" fill-opacity="0.0" d="m56.65354 138.59055l23.055122 17.858276" fill-rule="evenodd"/><path stroke="#000000" stroke-width="1.0" stroke-linejoin="round" stroke-linecap="butt" d="m56.65354 138.59055l18.311684 14.184067" fill-rule="evenodd"/><path fill="#000000" stroke="#000000" stroke-width="1.0" stroke-linecap="butt" d="m73.95376 154.08041l4.599167 1.473175l-2.5762253 -4.084793z" fill-rule="evenodd"/><path fill="#000000" fill-opacity="0.0" d="m113.5538 128.54855l0 25.291336" fill-rule="evenodd"/><path stroke="#000000" stroke-width="1.0" stroke-linejoin="round" stroke-linecap="butt" d="m113.5538 128.54855l0 19.291336" fill-rule="evenodd"/><path fill="#000000" stroke="#000000" stroke-width="1.0" stroke-linecap="butt" d="m111.90208 147.83989l1.6517258 4.538101l1.6517334 -4.538101z" fill-rule="evenodd"/><path fill="#000000" fill-opacity="0.0" d="m155.95013 128.54855l0 25.291336" fill-rule="evenodd"/><path stroke="#000000" stroke-width="1.0" stroke-linejoin="round" stroke-linecap="butt" d="m155.95013 128.54855l0 19.291336" fill-rule="evenodd"/><path fill="#000000" stroke="#000000" stroke-width="1.0" stroke-linecap="butt" d="m154.2984 147.83989l1.6517334 4.538101l1.6517334 -4.538101z" fill-rule="evenodd"/><path fill="#000000" fill-opacity="0.0" d="m196.11548 128.54855l0 25.291336" fill-rule="evenodd"/><path stroke="#000000" stroke-width="1.0" stroke-linejoin="round" stroke-linecap="butt" d="m196.11548 128.54855l0 19.291336" fill-rule="evenodd"/><path fill="#000000" stroke="#000000" stroke-width="1.0" stroke-linecap="butt" d="m194.46376 147.83989l1.6517181 4.538101l1.6517334 -4.538101z" fill-rule="evenodd"/><path fill="#000000" fill-opacity="0.0" d="m240.0 128.54855l0 25.291336" fill-rule="evenodd"/><path stroke="#000000" stroke-width="1.0" stroke-linejoin="round" stroke-linecap="butt" d="m240.0 128.54855l0 19.291336" fill-rule="evenodd"/><path fill="#000000" stroke="#000000" stroke-width="1.0" stroke-linecap="butt" d="m238.34827 147.83989l1.6517334 4.538101l1.6517334 -4.538101z" fill-rule="evenodd"/><path fill="#000000" fill-opacity="0.0" d="m285.3727 128.54855l0 25.291336" fill-rule="evenodd"/><path stroke="#000000" stroke-width="1.0" stroke-linejoin="round" stroke-linecap="butt" d="m285.3727 128.54855l0 19.291336" fill-rule="evenodd"/><path fill="#000000" stroke="#000000" stroke-width="1.0" stroke-linecap="butt" d="m283.72098 147.83989l1.6517334 4.538101l1.6517334 -4.538101z" fill-rule="evenodd"/><path fill="#000000" fill-opacity="0.0" d="m327.76904 128.54855l0 25.291336" fill-rule="evenodd"/><path stroke="#000000" stroke-width="1.0" stroke-linejoin="round" stroke-linecap="butt" d="m327.76904 128.54855l0 19.291336" fill-rule="evenodd"/><path fill="#000000" stroke="#000000" stroke-width="1.0" stroke-linecap="butt" d="m326.1173 147.83989l1.6517334 4.538101l1.6517334 -4.538101z" fill-rule="evenodd"/><path fill="#000000" fill-opacity="0.0" d="m367.9344 128.54855l0 25.291336" fill-rule="evenodd"/><path stroke="#000000" stroke-width="1.0" stroke-linejoin="round" stroke-linecap="butt" d="m367.9344 128.54855l0 19.291336" fill-rule="evenodd"/><path fill="#000000" stroke="#000000" stroke-width="1.0" stroke-linecap="butt" d="m366.28265 147.83989l1.6517334 4.538101l1.6517334 -4.538101z" fill-rule="evenodd"/><path fill="#000000" fill-opacity="0.0" d="m411.8189 128.54855l0 25.291336" fill-rule="evenodd"/><path stroke="#000000" stroke-width="1.0" stroke-linejoin="round" stroke-linecap="butt" d="m411.8189 128.54855l0 19.291336" fill-rule="evenodd"/><path fill="#000000" stroke="#000000" stroke-width="1.0" stroke-linecap="butt" d="m410.16718 147.83989l1.6517334 4.538101l1.6517334 -4.538101z" fill-rule="evenodd"/><path fill="#000000" fill-opacity="0.0" d="m457.1916 128.54855l0 25.291336" fill-rule="evenodd"/><path stroke="#000000" stroke-width="1.0" stroke-linejoin="round" stroke-linecap="butt" d="m457.1916 128.54855l0 19.291336" fill-rule="evenodd"/><path fill="#000000" stroke="#000000" stroke-width="1.0" stroke-linecap="butt" d="m455.53986 147.83989l1.6517334 4.538101l1.6517334 -4.538101z" fill-rule="evenodd"/><path fill="#000000" fill-opacity="0.0" d="m499.58792 128.54855l0 25.291336" fill-rule="evenodd"/><path stroke="#000000" stroke-width="1.0" stroke-linejoin="round" stroke-linecap="butt" d="m499.58792 128.54855l0 19.291336" fill-rule="evenodd"/><path fill="#000000" stroke="#000000" stroke-width="1.0" stroke-linecap="butt" d="m497.9362 147.83989l1.6517334 4.538101l1.6517334 -4.538101z" fill-rule="evenodd"/><path fill="#000000" fill-opacity="0.0" d="m539.7533 128.54855l0 25.291336" fill-rule="evenodd"/><path stroke="#000000" stroke-width="1.0" stroke-linejoin="round" stroke-linecap="butt" d="m539.7533 128.54855l0 19.291336" fill-rule="evenodd"/><path fill="#000000" stroke="#000000" stroke-width="1.0" stroke-linecap="butt" d="m538.10156 147.83989l1.6517334 4.538101l1.6517334 -4.538101z" fill-rule="evenodd"/><path fill="#000000" fill-opacity="0.0" d="m583.6378 128.54855l0 25.291336" fill-rule="evenodd"/><path stroke="#000000" stroke-width="1.0" stroke-linejoin="round" stroke-linecap="butt" d="m583.6378 128.54855l0 19.291336" fill-rule="evenodd"/><path fill="#000000" stroke="#000000" stroke-width="1.0" stroke-linecap="butt" d="m581.9861 147.83989l1.6517334 4.538101l1.6517334 -4.538101z" fill-rule="evenodd"/><path fill="#000000" fill-opacity="0.0" d="m627.52234 128.54855l0 25.291336" fill-rule="evenodd"/><path stroke="#000000" stroke-width="1.0" stroke-linejoin="round" stroke-linecap="butt" d="m627.52234 128.54855l0 19.291336" fill-rule="evenodd"/><path fill="#000000" stroke="#000000" stroke-width="1.0" stroke-linecap="butt" d="m625.8706 147.83989l1.6517334 4.538101l1.6517334 -4.538101z" fill-rule="evenodd"/><path fill="#000000" fill-opacity="0.0" d="m672.895 128.54855l0 25.291336" fill-rule="evenodd"/><path stroke="#000000" stroke-width="1.0" stroke-linejoin="round" stroke-linecap="butt" d="m672.895 128.54855l0 19.291336" fill-rule="evenodd"/><path fill="#000000" stroke="#000000" stroke-width="1.0" stroke-linecap="butt" d="m671.2433 147.83989l1.6517334 4.538101l1.6517334 -4.538101z" fill-rule="evenodd"/><path fill="#000000" fill-opacity="0.0" d="m715.2913 128.54855l0 25.291336" fill-rule="evenodd"/><path stroke="#000000" stroke-width="1.0" stroke-linejoin="round" stroke-linecap="butt" d="m715.2913 128.54855l0 19.291336" fill-rule="evenodd"/><path fill="#000000" stroke="#000000" stroke-width="1.0" stroke-linecap="butt" d="m713.6396 147.83989l1.6517334 4.538101l1.6517334 -4.538101z" fill-rule="evenodd"/><path fill="#000000" fill-opacity="0.0" d="m755.45667 128.54855l0 25.291336" fill-rule="evenodd"/><path stroke="#000000" stroke-width="1.0" stroke-linejoin="round" stroke-linecap="butt" d="m755.45667 128.54855l0 19.291336" fill-rule="evenodd"/><path fill="#000000" stroke="#000000" stroke-width="1.0" stroke-linecap="butt" d="m753.80493 147.83989l1.6517334 4.538101l1.6517334 -4.538101z" fill-rule="evenodd"/><path fill="#000000" fill-opacity="0.0" d="m799.3412 128.54855l0 25.291336" fill-rule="evenodd"/><path stroke="#000000" stroke-width="1.0" stroke-linejoin="round" stroke-linecap="butt" d="m799.3412 128.54855l0 19.291336" fill-rule="evenodd"/><path fill="#000000" stroke="#000000" stroke-width="1.0" stroke-linecap="butt" d="m797.68945 147.83989l1.6517334 4.538101l1.6517334 -4.538101z" fill-rule="evenodd"/><path fill="#000000" fill-opacity="0.0" d="m866.5381 196.28346l-29.417358 0" fill-rule="evenodd"/><path stroke="#000000" stroke-width="1.0" stroke-linejoin="round" stroke-linecap="butt" d="m866.5381 196.28346l-23.417358 0" fill-rule="evenodd"/><path fill="#000000" stroke="#000000" stroke-width="1.0" stroke-linecap="butt" d="m843.1207 194.63173l-4.538086 1.6517334l4.538086 1.6517334z" fill-rule="evenodd"/><path fill="#000000" fill-opacity="0.0" d="m858.28754 144.59055l-22.236206 17.858276" fill-rule="evenodd"/><path stroke="#000000" stroke-width="1.0" stroke-linejoin="round" stroke-linecap="butt" d="m858.28754 144.59055l-17.558105 14.101227" fill-rule="evenodd"/><path fill="#000000" stroke="#000000" stroke-width="1.0" stroke-linecap="butt" d="m839.6952 157.40395l-2.5040283 4.129471l4.572571 -1.5538177z" fill-rule="evenodd"/><path fill="#000000" fill-opacity="0.0" d="m350.0 223.27559l263.62207 0l0 152.72441l-263.62207 0z" fill-rule="evenodd"/><path fill="#000000" d="m459.87793 334.78217q-7.6875 0 -13.734375 -3.453125q-6.046875 -3.46875 -9.5 -9.515625q-3.453125 -6.046875 -3.453125 -13.71875q0 -7.78125 3.453125 -13.828125q3.453125 -6.046875 9.5 -9.5q6.046875 -3.453125 13.734375 -3.453125q7.671875 0 13.671875 3.453125q6.0 3.453125 9.453125 9.5q3.46875 6.046875 3.5625 13.828125q0 7.671875 -3.515625 13.71875q-3.5 6.046875 -9.5 9.515625q-6.0 3.453125 -13.671875 3.453125zm0 -6.71875q5.5625 0 9.96875 -2.59375q4.421875 -2.59375 6.921875 -7.109375q2.5 -4.515625 2.5 -10.265625q0 -5.765625 -2.5 -10.328125q-2.5 -4.5625 -6.921875 -7.140625q-4.40625 -2.59375 -9.96875 -2.59375q-5.578125 0 -10.0 2.59375q-4.40625 2.578125 -6.953125 7.140625q-2.53125 4.5625 -2.53125 10.328125q0 5.75 2.53125 10.265625q2.546875 4.515625 6.953125 7.109375q4.421875 2.59375 10.0 2.59375zm44.16382 -26.125q0.28125 -5.9375 3.109375 -10.640625q2.828125 -4.71875 7.390625 -7.40625q4.5625 -2.6875 10.140625 -2.6875q4.40625 0 6.796875 1.25q2.40625 1.25 1.828125 3.65625q-0.375 1.4375 -1.296875 1.921875q-0.90625 0.46875 -2.203125 0.375q-1.296875 -0.09375 -2.921875 -0.1875q-5.375 -0.484375 -9.5625 1.109375q-4.171875 1.578125 -6.625 4.84375q-2.4375 3.265625 -2.4375 7.765625l-4.21875 0zm0.5625 32.359375q-1.71875 0 -2.6875 -0.953125q-0.953125 -0.96875 -0.953125 -2.6875l0 -45.21875q0 -1.734375 0.953125 -2.6875q0.96875 -0.96875 2.6875 -0.96875q1.734375 0 2.6875 0.96875q0.96875 0.953125 0.96875 2.6875l0 45.21875q0 1.71875 -0.96875 2.6875q-0.953125 0.953125 -2.6875 0.953125z" fill-rule="nonzero"/><path fill="#000000" fill-opacity="0.0" d="m88.26509 438.89764l738.1102 0l0 49.102356l-738.1102 0z" fill-rule="evenodd"/><path stroke="#000000" stroke-width="1.0" stroke-linejoin="round" stroke-linecap="butt" d="m88.26509 438.89764l738.1102 0l0 49.102356l-738.1102 0z" fill-rule="evenodd"/><path fill="#000000" fill-opacity="0.0" d="m48.09974 463.1942l30.48819 0" fill-rule="evenodd"/><path stroke="#000000" stroke-width="1.0" stroke-linejoin="round" stroke-linecap="butt" d="m48.09974 463.1942l24.48819 0" fill-rule="evenodd"/><path fill="#000000" stroke="#000000" stroke-width="1.0" stroke-linecap="butt" d="m72.58793 464.84595l4.5380936 -1.6517334l-4.5380936 -1.6517334z" fill-rule="evenodd"/><path fill="#000000" fill-opacity="0.0" d="m457.1916 401.45932l0 25.291351" fill-rule="evenodd"/><path stroke="#000000" stroke-width="1.0" stroke-linejoin="round" stroke-linecap="butt" d="m457.1916 401.45932l0 19.291351" fill-rule="evenodd"/><path fill="#000000" stroke="#000000" stroke-width="1.0" stroke-linecap="butt" d="m455.53986 420.75067l1.6517334 4.538086l1.6517334 -4.538086z" fill-rule="evenodd"/><path fill="#000000" fill-opacity="0.0" d="m499.58792 401.45932l-3.5905457 24.0" fill-rule="evenodd"/><path stroke="#000000" stroke-width="1.0" stroke-linejoin="round" stroke-linecap="butt" d="m499.58792 401.45932l-2.7027893 18.06601" fill-rule="evenodd"/><path fill="#000000" stroke="#000000" stroke-width="1.0" stroke-linecap="butt" d="m495.2516 419.28098l0.96209717 4.732544l2.3049927 -4.2437744z" fill-rule="evenodd"/><path fill="#000000" fill-opacity="0.0" d="m539.7533 401.45932l-3.7480469 24.0" fill-rule="evenodd"/><path stroke="#000000" stroke-width="1.0" stroke-linejoin="round" stroke-linecap="butt" d="m539.7533 401.45932l-2.8222656 18.071838" fill-rule="evenodd"/><path fill="#000000" stroke="#000000" stroke-width="1.0" stroke-linecap="butt" d="m535.2991 419.2763l0.9317627 4.738617l2.3321533 -4.228882z" fill-rule="evenodd"/><path fill="#000000" fill-opacity="0.0" d="m583.6378 401.45932l-15.62207 24.0" fill-rule="evenodd"/><path stroke="#000000" stroke-width="1.0" stroke-linejoin="round" stroke-linecap="butt" d="m583.6378 401.45932l-12.348877 18.971466" fill-rule="evenodd"/><path fill="#000000" stroke="#000000" stroke-width="1.0" stroke-linecap="butt" d="m569.9046 419.5297l-1.0913696 4.7044067l3.8599854 -2.9022522z" fill-rule="evenodd"/><path fill="#000000" fill-opacity="0.0" d="m627.52234 401.45932l-19.527588 24.0" fill-rule="evenodd"/><path stroke="#000000" stroke-width="1.0" stroke-linejoin="round" stroke-linecap="butt" d="m627.52234 401.45932l-15.740784 19.345917" fill-rule="evenodd"/><path fill="#000000" stroke="#000000" stroke-width="1.0" stroke-linecap="butt" d="m610.5003 419.7628l-1.5828857 4.562561l4.1453247 -2.4776306z" fill-rule="evenodd"/><path fill="#000000" fill-opacity="0.0" d="m688.0 401.45932l-40.0 24.0" fill-rule="evenodd"/><path stroke="#000000" stroke-width="1.0" stroke-linejoin="round" stroke-linecap="butt" d="m688.0 401.45932l-34.85504 20.913025" fill-rule="evenodd"/><path fill="#000000" stroke="#000000" stroke-width="1.0" stroke-linecap="butt" d="m652.29517 420.956l-3.041565 3.7511902l4.74115 -0.91848755z" fill-rule="evenodd"/><path fill="#000000" fill-opacity="0.0" d="m755.45667 401.45932l-51.46454 24.0" fill-rule="evenodd"/><path stroke="#000000" stroke-width="1.0" stroke-linejoin="round" stroke-linecap="butt" d="m755.45667 401.45932l-46.026794 21.464142" fill-rule="evenodd"/><path fill="#000000" stroke="#000000" stroke-width="1.0" stroke-linecap="butt" d="m708.7318 421.4265l-3.414795 3.4149475l4.810974 -0.42105103z" fill-rule="evenodd"/><path fill="#000000" fill-opacity="0.0" d="m831.33856 401.45932l-55.338562 24.0" fill-rule="evenodd"/><path stroke="#000000" stroke-width="1.0" stroke-linejoin="round" stroke-linecap="butt" d="m831.33856 401.45932l-49.833984 21.612701" fill-rule="evenodd"/><path fill="#000000" stroke="#000000" stroke-width="1.0" stroke-linecap="butt" d="m780.8474 421.55664l-3.5062256 3.3210144l4.8206177 -0.2902832z" fill-rule="evenodd"/><path fill="#000000" fill-opacity="0.0" d="m866.5381 469.1942l-29.417358 0" fill-rule="evenodd"/><path stroke="#000000" stroke-width="1.0" stroke-linejoin="round" stroke-linecap="butt" d="m866.5381 469.1942l-23.417358 0" fill-rule="evenodd"/><path fill="#000000" stroke="#000000" stroke-width="1.0" stroke-linecap="butt" d="m843.1207 467.54248l-4.538086 1.6517334l4.538086 1.6517334z" fill-rule="evenodd"/><path fill="#000000" fill-opacity="0.0" d="m864.0 425.45932l-27.937012 9.8897705" fill-rule="evenodd"/><path stroke="#000000" stroke-width="1.0" stroke-linejoin="round" stroke-linecap="butt" d="m864.0 425.45932l-22.280945 7.887512" fill-rule="evenodd"/><path fill="#000000" stroke="#000000" stroke-width="1.0" stroke-linecap="butt" d="m841.16785 431.78976l-3.7267456 3.0714722l4.8291626 0.042633057z" fill-rule="evenodd"/><path fill="#000000" fill-opacity="0.0" d="m412.40945 401.45932l3.5905457 24.0" fill-rule="evenodd"/><path stroke="#000000" stroke-width="1.0" stroke-linejoin="round" stroke-linecap="butt" d="m412.40945 401.45932l2.7027893 18.06601" fill-rule="evenodd"/><path fill="#000000" stroke="#000000" stroke-width="1.0" stroke-linecap="butt" d="m413.4787 419.76974l2.3049927 4.2437744l0.96209717 -4.732544z" fill-rule="evenodd"/><path fill="#000000" fill-opacity="0.0" d="m372.24466 401.45932l3.7480469 24.0" fill-rule="evenodd"/><path stroke="#000000" stroke-width="1.0" stroke-linejoin="round" stroke-linecap="butt" d="m372.24466 401.45932l2.8222656 18.071838" fill-rule="evenodd"/><path fill="#000000" stroke="#000000" stroke-width="1.0" stroke-linecap="butt" d="m373.43497 419.78604l2.3321533 4.228882l0.9317322 -4.738617z" fill-rule="evenodd"/><path fill="#000000" fill-opacity="0.0" d="m328.36078 401.45932l15.62204 24.0" fill-rule="evenodd"/><path stroke="#000000" stroke-width="1.0" stroke-linejoin="round" stroke-linecap="butt" d="m328.36078 401.45932l12.348877 18.971466" fill-rule="evenodd"/><path fill="#000000" stroke="#000000" stroke-width="1.0" stroke-linecap="butt" d="m339.32535 421.33185l3.8599548 2.9022522l-1.0913696 -4.7044067z" fill-rule="evenodd"/><path fill="#000000" fill-opacity="0.0" d="m284.4769 401.45932l19.527557 24.0" fill-rule="evenodd"/><path stroke="#000000" stroke-width="1.0" stroke-linejoin="round" stroke-linecap="butt" d="m284.4769 401.45932l15.740784 19.345917" fill-rule="evenodd"/><path fill="#000000" stroke="#000000" stroke-width="1.0" stroke-linecap="butt" d="m298.93646 421.84772l4.1453247 2.4776306l-1.5828857 -4.562561z" fill-rule="evenodd"/><path fill="#000000" fill-opacity="0.0" d="m224.00006 401.45932l40.0 24.0" fill-rule="evenodd"/><path stroke="#000000" stroke-width="1.0" stroke-linejoin="round" stroke-linecap="butt" d="m224.00006 401.45932l34.85504 20.913025" fill-rule="evenodd"/><path fill="#000000" stroke="#000000" stroke-width="1.0" stroke-linecap="butt" d="m258.0053 423.7887l4.7411804 0.91848755l-3.041565 -3.7511902z" fill-rule="evenodd"/><path fill="#000000" fill-opacity="0.0" d="m156.54433 401.45932l51.46457 24.0" fill-rule="evenodd"/><path stroke="#000000" stroke-width="1.0" stroke-linejoin="round" stroke-linecap="butt" d="m156.54433 401.45932l46.02678 21.464142" fill-rule="evenodd"/><path fill="#000000" stroke="#000000" stroke-width="1.0" stroke-linecap="butt" d="m201.87303 424.4204l4.8109436 0.42105103l-3.4147644 -3.4149475z" fill-rule="evenodd"/><path fill="#000000" fill-opacity="0.0" d="m80.66353 401.45932l55.338577 24.0" fill-rule="evenodd"/><path stroke="#000000" stroke-width="1.0" stroke-linejoin="round" stroke-linecap="butt" d="m80.66352 401.45932l49.833977 21.612701" fill-rule="evenodd"/><path fill="#000000" stroke="#000000" stroke-width="1.0" stroke-linecap="butt" d="m129.8403 424.58737l4.8206177 0.2902832l-3.5062103 -3.3210144z" fill-rule="evenodd"/><path fill="#000000" fill-opacity="0.0" d="m48.002575 425.45932l27.937008 9.8897705" fill-rule="evenodd"/><path stroke="#000000" stroke-width="1.0" stroke-linejoin="round" stroke-linecap="butt" d="m48.002575 425.45932l22.280949 7.887512" fill-rule="evenodd"/><path fill="#000000" stroke="#000000" stroke-width="1.0" stroke-linecap="butt" d="m69.73233 434.90387l4.8291473 -0.042633057l-3.7267532 -3.0714722z" fill-rule="evenodd"/><path fill="#000000" fill-opacity="0.0" d="m350.0 543.2756l263.62207 0l0 152.72443l-263.62207 0z" fill-rule="evenodd"/><path fill="#000000" d="m481.75815 637.3134q-1.625 0 -2.6875 -1.0625q-1.046875 -1.0625 -1.046875 -2.78125q0 -3.84375 1.859375 -8.25q1.875 -4.421875 5.234375 -7.59375q2.984375 -2.78125 5.671875 -5.375q2.6875 -2.59375 4.359375 -5.75q1.6875 -3.171875 1.6875 -7.984375q0 -3.734375 -1.828125 -6.859375q-1.828125 -3.125 -5.140625 -4.9375q-3.296875 -1.828125 -7.71875 -1.828125q-4.796875 0 -8.265625 1.96875q-3.453125 1.96875 -5.328125 5.421875q-1.859375 3.453125 -1.859375 7.96875q0 1.625 -1.015625 2.640625q-1.0 1.0 -2.640625 1.0q-1.625 0 -2.6875 -1.0q-1.046875 -1.015625 -1.046875 -2.640625q0 -6.625 2.875 -11.65625q2.875 -5.046875 8.015625 -7.921875q5.140625 -2.890625 11.953125 -2.890625q6.328125 0 11.3125 2.734375q5.0 2.734375 7.875 7.5q2.890625 4.75 2.890625 10.890625q0 5.375 -1.921875 9.125q-1.921875 3.734375 -5.046875 6.859375q-3.109375 3.125 -6.859375 6.578125q-2.96875 2.6875 -3.9375 6.046875q-0.953125 3.359375 -0.953125 5.953125q0 1.71875 -1.0625 2.78125q-1.046875 1.0625 -2.6875 1.0625zm0 16.984375q-2.390625 0 -3.984375 -1.625q-1.578125 -1.640625 -1.578125 -3.9375q0 -2.40625 1.625 -4.03125q1.640625 -1.640625 3.9375 -1.640625q2.3125 0 3.984375 1.640625q1.6875 1.625 1.6875 4.03125q0 2.296875 -1.6875 3.9375q-1.671875 1.625 -3.984375 1.625z" fill-rule="nonzero"/></g></svg>